<svg width="39" height="39" viewBox="0 0 39 39" fill="none" xmlns="http://www.w3.org/2000/svg">
<rect width="38.48" height="38.48" rx="16.8575" fill="#8205FE"/>
<path d="M24.3815 31.8663L19.8637 32.8609C18.5488 26.8708 12.6038 23.0667 6.61373 24.3815L5.61914 19.8637C11.6092 18.5432 15.4133 12.6038 14.0985 6.61376L18.6163 5.61917C19.9311 11.6092 25.8762 15.4134 31.8662 14.0985L32.8608 18.6163C26.8708 19.9312 23.0666 25.8762 24.3815 31.8663ZM14.1322 20.3582C16.4922 21.1786 18.6275 22.5441 20.3582 24.3422C21.1786 21.9822 22.544 19.8469 24.3422 18.1162C21.9821 17.2958 19.8469 15.9303 18.1161 14.1322C17.3014 16.4922 15.9303 18.6275 14.1322 20.3582Z" fill="#EAF1F4"/>
</svg>
